<?xml version="1.0" encoding="utf-8" standalone="no"?>
<!DOCTYPE svg PUBLIC "-//W3C//DTD SVG 1.1//EN"
  "http://www.w3.org/Graphics/SVG/1.1/DTD/svg11.dtd">
<svg xmlns:xlink="http://www.w3.org/1999/xlink" width="460.8pt" height="345.6pt" viewBox="0 0 460.8 345.6" xmlns="http://www.w3.org/2000/svg" version="1.1">
 <metadata>
  <rdf:RDF xmlns:dc="http://purl.org/dc/elements/1.1/" xmlns:cc="http://creativecommons.org/ns#" xmlns:rdf="http://www.w3.org/1999/02/22-rdf-syntax-ns#">
   <cc:Work>
    <dc:type rdf:resource="http://purl.org/dc/dcmitype/StillImage"/>
    <dc:date>2023-11-12T22:03:20.885386</dc:date>
    <dc:format>image/svg+xml</dc:format>
    <dc:creator>
     <cc:Agent>
      <dc:title>Matplotlib v3.8.0, https://matplotlib.org/</dc:title>
     </cc:Agent>
    </dc:creator>
   </cc:Work>
  </rdf:RDF>
 </metadata>
 <defs>
  <style type="text/css">*{stroke-linejoin: round; stroke-linecap: butt}</style>
 </defs>
 <g id="figure_1">
  <g id="patch_1">
   <path d="M 0 345.6 
L 460.8 345.6 
L 460.8 0 
L 0 0 
z
" style="fill: #ffffff"/>
  </g>
  <g id="axes_1">
   <g id="patch_2">
    <path d="M 57.6 307.584 
L 414.72 307.584 
L 414.72 41.472 
L 57.6 41.472 
z
" style="fill: #eaeaf2"/>
   </g>
   <g id="matplotlib.axis_1">
    <g id="xtick_1">
     <g id="line2d_1">
      <path d="M 73.832727 307.584 
L 73.832727 41.472 
" clip-path="url(#p8a8c4e975b)" style="fill: none; stroke: #ffffff; stroke-linecap: round"/>
     </g>
     <g id="text_1">
      <!-- 0 -->
      <g style="fill: #262626" transform="translate(70.333352 325.442281) scale(0.11 -0.11)">
       <defs>
        <path id="DejaVuSans-30" d="M 2034 4250 
Q 1547 4250 1301 3770 
Q 1056 3291 1056 2328 
Q 1056 1369 1301 889 
Q 1547 409 2034 409 
Q 2525 409 2770 889 
Q 3016 1369 3016 2328 
Q 3016 3291 2770 3770 
Q 2525 4250 2034 4250 
z
M 2034 4750 
Q 2819 4750 3233 4129 
Q 3647 3509 3647 2328 
Q 3647 1150 3233 529 
Q 2819 -91 2034 -91 
Q 1250 -91 836 529 
Q 422 1150 422 2328 
Q 422 3509 836 4129 
Q 1250 4750 2034 4750 
z
" transform="scale(0.015625)"/>
       </defs>
       <use xlink:href="#DejaVuSans-30"/>
      </g>
     </g>
    </g>
    <g id="xtick_2">
     <g id="line2d_2">
      <path d="M 127.941818 307.584 
L 127.941818 41.472 
" clip-path="url(#p8a8c4e975b)" style="fill: none; stroke: #ffffff; stroke-linecap: round"/>
     </g>
     <g id="text_2">
      <!-- 10 -->
      <g style="fill: #262626" transform="translate(120.943068 325.442281) scale(0.11 -0.11)">
       <defs>
        <path id="DejaVuSans-31" d="M 794 531 
L 1825 531 
L 1825 4091 
L 703 3866 
L 703 4441 
L 1819 4666 
L 2450 4666 
L 2450 531 
L 3481 531 
L 3481 0 
L 794 0 
L 794 531 
z
" transform="scale(0.015625)"/>
       </defs>
       <use xlink:href="#DejaVuSans-31"/>
       <use xlink:href="#DejaVuSans-30" x="63.623047"/>
      </g>
     </g>
    </g>
    <g id="xtick_3">
     <g id="line2d_3">
      <path d="M 182.050909 307.584 
L 182.050909 41.472 
" clip-path="url(#p8a8c4e975b)" style="fill: none; stroke: #ffffff; stroke-linecap: round"/>
     </g>
     <g id="text_3">
      <!-- 20 -->
      <g style="fill: #262626" transform="translate(175.052159 325.442281) scale(0.11 -0.11)">
       <defs>
        <path id="DejaVuSans-32" d="M 1228 531 
L 3431 531 
L 3431 0 
L 469 0 
L 469 531 
Q 828 903 1448 1529 
Q 2069 2156 2228 2338 
Q 2531 2678 2651 2914 
Q 2772 3150 2772 3378 
Q 2772 3750 2511 3984 
Q 2250 4219 1831 4219 
Q 1534 4219 1204 4116 
Q 875 4013 500 3803 
L 500 4441 
Q 881 4594 1212 4672 
Q 1544 4750 1819 4750 
Q 2544 4750 2975 4387 
Q 3406 4025 3406 3419 
Q 3406 3131 3298 2873 
Q 3191 2616 2906 2266 
Q 2828 2175 2409 1742 
Q 1991 1309 1228 531 
z
" transform="scale(0.015625)"/>
       </defs>
       <use xlink:href="#DejaVuSans-32"/>
       <use xlink:href="#DejaVuSans-30" x="63.623047"/>
      </g>
     </g>
    </g>
    <g id="xtick_4">
     <g id="line2d_4">
      <path d="M 236.16 307.584 
L 236.16 41.472 
" clip-path="url(#p8a8c4e975b)" style="fill: none; stroke: #ffffff; stroke-linecap: round"/>
     </g>
     <g id="text_4">
      <!-- 30 -->
      <g style="fill: #262626" transform="translate(229.16125 325.442281) scale(0.11 -0.11)">
       <defs>
        <path id="DejaVuSans-33" d="M 2597 2516 
Q 3050 2419 3304 2112 
Q 3559 1806 3559 1356 
Q 3559 666 3084 287 
Q 2609 -91 1734 -91 
Q 1441 -91 1130 -33 
Q 819 25 488 141 
L 488 750 
Q 750 597 1062 519 
Q 1375 441 1716 441 
Q 2309 441 2620 675 
Q 2931 909 2931 1356 
Q 2931 1769 2642 2001 
Q 2353 2234 1838 2234 
L 1294 2234 
L 1294 2753 
L 1863 2753 
Q 2328 2753 2575 2939 
Q 2822 3125 2822 3475 
Q 2822 3834 2567 4026 
Q 2313 4219 1838 4219 
Q 1578 4219 1281 4162 
Q 984 4106 628 3988 
L 628 4550 
Q 988 4650 1302 4700 
Q 1616 4750 1894 4750 
Q 2613 4750 3031 4423 
Q 3450 4097 3450 3541 
Q 3450 3153 3228 2886 
Q 3006 2619 2597 2516 
z
" transform="scale(0.015625)"/>
       </defs>
       <use xlink:href="#DejaVuSans-33"/>
       <use xlink:href="#DejaVuSans-30" x="63.623047"/>
      </g>
     </g>
    </g>
    <g id="xtick_5">
     <g id="line2d_5">
      <path d="M 290.269091 307.584 
L 290.269091 41.472 
" clip-path="url(#p8a8c4e975b)" style="fill: none; stroke: #ffffff; stroke-linecap: round"/>
     </g>
     <g id="text_5">
      <!-- 40 -->
      <g style="fill: #262626" transform="translate(283.270341 325.442281) scale(0.11 -0.11)">
       <defs>
        <path id="DejaVuSans-34" d="M 2419 4116 
L 825 1625 
L 2419 1625 
L 2419 4116 
z
M 2253 4666 
L 3047 4666 
L 3047 1625 
L 3713 1625 
L 3713 1100 
L 3047 1100 
L 3047 0 
L 2419 0 
L 2419 1100 
L 313 1100 
L 313 1709 
L 2253 4666 
z
" transform="scale(0.015625)"/>
       </defs>
       <use xlink:href="#DejaVuSans-34"/>
       <use xlink:href="#DejaVuSans-30" x="63.623047"/>
      </g>
     </g>
    </g>
    <g id="xtick_6">
     <g id="line2d_6">
      <path d="M 344.378182 307.584 
L 344.378182 41.472 
" clip-path="url(#p8a8c4e975b)" style="fill: none; stroke: #ffffff; stroke-linecap: round"/>
     </g>
     <g id="text_6">
      <!-- 50 -->
      <g style="fill: #262626" transform="translate(337.379432 325.442281) scale(0.11 -0.11)">
       <defs>
        <path id="DejaVuSans-35" d="M 691 4666 
L 3169 4666 
L 3169 4134 
L 1269 4134 
L 1269 2991 
Q 1406 3038 1543 3061 
Q 1681 3084 1819 3084 
Q 2600 3084 3056 2656 
Q 3513 2228 3513 1497 
Q 3513 744 3044 326 
Q 2575 -91 1722 -91 
Q 1428 -91 1123 -41 
Q 819 9 494 109 
L 494 744 
Q 775 591 1075 516 
Q 1375 441 1709 441 
Q 2250 441 2565 725 
Q 2881 1009 2881 1497 
Q 2881 1984 2565 2268 
Q 2250 2553 1709 2553 
Q 1456 2553 1204 2497 
Q 953 2441 691 2322 
L 691 4666 
z
" transform="scale(0.015625)"/>
       </defs>
       <use xlink:href="#DejaVuSans-35"/>
       <use xlink:href="#DejaVuSans-30" x="63.623047"/>
      </g>
     </g>
    </g>
    <g id="xtick_7">
     <g id="line2d_7">
      <path d="M 398.487273 307.584 
L 398.487273 41.472 
" clip-path="url(#p8a8c4e975b)" style="fill: none; stroke: #ffffff; stroke-linecap: round"/>
     </g>
     <g id="text_7">
      <!-- 60 -->
      <g style="fill: #262626" transform="translate(391.488523 325.442281) scale(0.11 -0.11)">
       <defs>
        <path id="DejaVuSans-36" d="M 2113 2584 
Q 1688 2584 1439 2293 
Q 1191 2003 1191 1497 
Q 1191 994 1439 701 
Q 1688 409 2113 409 
Q 2538 409 2786 701 
Q 3034 994 3034 1497 
Q 3034 2003 2786 2293 
Q 2538 2584 2113 2584 
z
M 3366 4563 
L 3366 3988 
Q 3128 4100 2886 4159 
Q 2644 4219 2406 4219 
Q 1781 4219 1451 3797 
Q 1122 3375 1075 2522 
Q 1259 2794 1537 2939 
Q 1816 3084 2150 3084 
Q 2853 3084 3261 2657 
Q 3669 2231 3669 1497 
Q 3669 778 3244 343 
Q 2819 -91 2113 -91 
Q 1303 -91 875 529 
Q 447 1150 447 2328 
Q 447 3434 972 4092 
Q 1497 4750 2381 4750 
Q 2619 4750 2861 4703 
Q 3103 4656 3366 4563 
z
" transform="scale(0.015625)"/>
       </defs>
       <use xlink:href="#DejaVuSans-36"/>
       <use xlink:href="#DejaVuSans-30" x="63.623047"/>
      </g>
     </g>
    </g>
    <g id="text_8">
     <!-- Nombre de jours écoulés depuis le lancement du projet -->
     <g style="fill: #262626" transform="translate(69.659063 341.328062) scale(0.12 -0.12)">
      <defs>
       <path id="DejaVuSans-4e" d="M 628 4666 
L 1478 4666 
L 3547 763 
L 3547 4666 
L 4159 4666 
L 4159 0 
L 3309 0 
L 1241 3903 
L 1241 0 
L 628 0 
L 628 4666 
z
" transform="scale(0.015625)"/>
       <path id="DejaVuSans-6f" d="M 1959 3097 
Q 1497 3097 1228 2736 
Q 959 2375 959 1747 
Q 959 1119 1226 758 
Q 1494 397 1959 397 
Q 2419 397 2687 759 
Q 2956 1122 2956 1747 
Q 2956 2369 2687 2733 
Q 2419 3097 1959 3097 
z
M 1959 3584 
Q 2709 3584 3137 3096 
Q 3566 2609 3566 1747 
Q 3566 888 3137 398 
Q 2709 -91 1959 -91 
Q 1206 -91 779 398 
Q 353 888 353 1747 
Q 353 2609 779 3096 
Q 1206 3584 1959 3584 
z
" transform="scale(0.015625)"/>
       <path id="DejaVuSans-6d" d="M 3328 2828 
Q 3544 3216 3844 3400 
Q 4144 3584 4550 3584 
Q 5097 3584 5394 3201 
Q 5691 2819 5691 2113 
L 5691 0 
L 5113 0 
L 5113 2094 
Q 5113 2597 4934 2840 
Q 4756 3084 4391 3084 
Q 3944 3084 3684 2787 
Q 3425 2491 3425 1978 
L 3425 0 
L 2847 0 
L 2847 2094 
Q 2847 2600 2669 2842 
Q 2491 3084 2119 3084 
Q 1678 3084 1418 2786 
Q 1159 2488 1159 1978 
L 1159 0 
L 581 0 
L 581 3500 
L 1159 3500 
L 1159 2956 
Q 1356 3278 1631 3431 
Q 1906 3584 2284 3584 
Q 2666 3584 2933 3390 
Q 3200 3197 3328 2828 
z
" transform="scale(0.015625)"/>
       <path id="DejaVuSans-62" d="M 3116 1747 
Q 3116 2381 2855 2742 
Q 2594 3103 2138 3103 
Q 1681 3103 1420 2742 
Q 1159 2381 1159 1747 
Q 1159 1113 1420 752 
Q 1681 391 2138 391 
Q 2594 391 2855 752 
Q 3116 1113 3116 1747 
z
M 1159 2969 
Q 1341 3281 1617 3432 
Q 1894 3584 2278 3584 
Q 2916 3584 3314 3078 
Q 3713 2572 3713 1747 
Q 3713 922 3314 415 
Q 2916 -91 2278 -91 
Q 1894 -91 1617 61 
Q 1341 213 1159 525 
L 1159 0 
L 581 0 
L 581 4863 
L 1159 4863 
L 1159 2969 
z
" transform="scale(0.015625)"/>
       <path id="DejaVuSans-72" d="M 2631 2963 
Q 2534 3019 2420 3045 
Q 2306 3072 2169 3072 
Q 1681 3072 1420 2755 
Q 1159 2438 1159 1844 
L 1159 0 
L 581 0 
L 581 3500 
L 1159 3500 
L 1159 2956 
Q 1341 3275 1631 3429 
Q 1922 3584 2338 3584 
Q 2397 3584 2469 3576 
Q 2541 3569 2628 3553 
L 2631 2963 
z
" transform="scale(0.015625)"/>
       <path id="DejaVuSans-65" d="M 3597 1894 
L 3597 1613 
L 953 1613 
Q 991 1019 1311 708 
Q 1631 397 2203 397 
Q 2534 397 2845 478 
Q 3156 559 3463 722 
L 3463 178 
Q 3153 47 2828 -22 
Q 2503 -91 2169 -91 
Q 1331 -91 842 396 
Q 353 884 353 1716 
Q 353 2575 817 3079 
Q 1281 3584 2069 3584 
Q 2775 3584 3186 3129 
Q 3597 2675 3597 1894 
z
M 3022 2063 
Q 3016 2534 2758 2815 
Q 2500 3097 2075 3097 
Q 1594 3097 1305 2825 
Q 1016 2553 972 2059 
L 3022 2063 
z
" transform="scale(0.015625)"/>
       <path id="DejaVuSans-20" transform="scale(0.015625)"/>
       <path id="DejaVuSans-64" d="M 2906 2969 
L 2906 4863 
L 3481 4863 
L 3481 0 
L 2906 0 
L 2906 525 
Q 2725 213 2448 61 
Q 2172 -91 1784 -91 
Q 1150 -91 751 415 
Q 353 922 353 1747 
Q 353 2572 751 3078 
Q 1150 3584 1784 3584 
Q 2172 3584 2448 3432 
Q 2725 3281 2906 2969 
z
M 947 1747 
Q 947 1113 1208 752 
Q 1469 391 1925 391 
Q 2381 391 2643 752 
Q 2906 1113 2906 1747 
Q 2906 2381 2643 2742 
Q 2381 3103 1925 3103 
Q 1469 3103 1208 2742 
Q 947 2381 947 1747 
z
" transform="scale(0.015625)"/>
       <path id="DejaVuSans-6a" d="M 603 3500 
L 1178 3500 
L 1178 -63 
Q 1178 -731 923 -1031 
Q 669 -1331 103 -1331 
L -116 -1331 
L -116 -844 
L 38 -844 
Q 366 -844 484 -692 
Q 603 -541 603 -63 
L 603 3500 
z
M 603 4863 
L 1178 4863 
L 1178 4134 
L 603 4134 
L 603 4863 
z
" transform="scale(0.015625)"/>
       <path id="DejaVuSans-75" d="M 544 1381 
L 544 3500 
L 1119 3500 
L 1119 1403 
Q 1119 906 1312 657 
Q 1506 409 1894 409 
Q 2359 409 2629 706 
Q 2900 1003 2900 1516 
L 2900 3500 
L 3475 3500 
L 3475 0 
L 2900 0 
L 2900 538 
Q 2691 219 2414 64 
Q 2138 -91 1772 -91 
Q 1169 -91 856 284 
Q 544 659 544 1381 
z
M 1991 3584 
L 1991 3584 
z
" transform="scale(0.015625)"/>
       <path id="DejaVuSans-73" d="M 2834 3397 
L 2834 2853 
Q 2591 2978 2328 3040 
Q 2066 3103 1784 3103 
Q 1356 3103 1142 2972 
Q 928 2841 928 2578 
Q 928 2378 1081 2264 
Q 1234 2150 1697 2047 
L 1894 2003 
Q 2506 1872 2764 1633 
Q 3022 1394 3022 966 
Q 3022 478 2636 193 
Q 2250 -91 1575 -91 
Q 1294 -91 989 -36 
Q 684 19 347 128 
L 347 722 
Q 666 556 975 473 
Q 1284 391 1588 391 
Q 1994 391 2212 530 
Q 2431 669 2431 922 
Q 2431 1156 2273 1281 
Q 2116 1406 1581 1522 
L 1381 1569 
Q 847 1681 609 1914 
Q 372 2147 372 2553 
Q 372 3047 722 3315 
Q 1072 3584 1716 3584 
Q 2034 3584 2315 3537 
Q 2597 3491 2834 3397 
z
" transform="scale(0.015625)"/>
       <path id="DejaVuSans-e9" d="M 3597 1894 
L 3597 1613 
L 953 1613 
Q 991 1019 1311 708 
Q 1631 397 2203 397 
Q 2534 397 2845 478 
Q 3156 559 3463 722 
L 3463 178 
Q 3153 47 2828 -22 
Q 2503 -91 2169 -91 
Q 1331 -91 842 396 
Q 353 884 353 1716 
Q 353 2575 817 3079 
Q 1281 3584 2069 3584 
Q 2775 3584 3186 3129 
Q 3597 2675 3597 1894 
z
M 3022 2063 
Q 3016 2534 2758 2815 
Q 2500 3097 2075 3097 
Q 1594 3097 1305 2825 
Q 1016 2553 972 2059 
L 3022 2063 
z
M 2466 5119 
L 3088 5119 
L 2070 3944 
L 1591 3944 
L 2466 5119 
z
" transform="scale(0.015625)"/>
       <path id="DejaVuSans-63" d="M 3122 3366 
L 3122 2828 
Q 2878 2963 2633 3030 
Q 2388 3097 2138 3097 
Q 1578 3097 1268 2742 
Q 959 2388 959 1747 
Q 959 1106 1268 751 
Q 1578 397 2138 397 
Q 2388 397 2633 464 
Q 2878 531 3122 666 
L 3122 134 
Q 2881 22 2623 -34 
Q 2366 -91 2075 -91 
Q 1284 -91 818 406 
Q 353 903 353 1747 
Q 353 2603 823 3093 
Q 1294 3584 2113 3584 
Q 2378 3584 2631 3529 
Q 2884 3475 3122 3366 
z
" transform="scale(0.015625)"/>
       <path id="DejaVuSans-6c" d="M 603 4863 
L 1178 4863 
L 1178 0 
L 603 0 
L 603 4863 
z
" transform="scale(0.015625)"/>
       <path id="DejaVuSans-70" d="M 1159 525 
L 1159 -1331 
L 581 -1331 
L 581 3500 
L 1159 3500 
L 1159 2969 
Q 1341 3281 1617 3432 
Q 1894 3584 2278 3584 
Q 2916 3584 3314 3078 
Q 3713 2572 3713 1747 
Q 3713 922 3314 415 
Q 2916 -91 2278 -91 
Q 1894 -91 1617 61 
Q 1341 213 1159 525 
z
M 3116 1747 
Q 3116 2381 2855 2742 
Q 2594 3103 2138 3103 
Q 1681 3103 1420 2742 
Q 1159 2381 1159 1747 
Q 1159 1113 1420 752 
Q 1681 391 2138 391 
Q 2594 391 2855 752 
Q 3116 1113 3116 1747 
z
" transform="scale(0.015625)"/>
       <path id="DejaVuSans-69" d="M 603 3500 
L 1178 3500 
L 1178 0 
L 603 0 
L 603 3500 
z
M 603 4863 
L 1178 4863 
L 1178 4134 
L 603 4134 
L 603 4863 
z
" transform="scale(0.015625)"/>
       <path id="DejaVuSans-61" d="M 2194 1759 
Q 1497 1759 1228 1600 
Q 959 1441 959 1056 
Q 959 750 1161 570 
Q 1363 391 1709 391 
Q 2188 391 2477 730 
Q 2766 1069 2766 1631 
L 2766 1759 
L 2194 1759 
z
M 3341 1997 
L 3341 0 
L 2766 0 
L 2766 531 
Q 2569 213 2275 61 
Q 1981 -91 1556 -91 
Q 1019 -91 701 211 
Q 384 513 384 1019 
Q 384 1609 779 1909 
Q 1175 2209 1959 2209 
L 2766 2209 
L 2766 2266 
Q 2766 2663 2505 2880 
Q 2244 3097 1772 3097 
Q 1472 3097 1187 3025 
Q 903 2953 641 2809 
L 641 3341 
Q 956 3463 1253 3523 
Q 1550 3584 1831 3584 
Q 2591 3584 2966 3190 
Q 3341 2797 3341 1997 
z
" transform="scale(0.015625)"/>
       <path id="DejaVuSans-6e" d="M 3513 2113 
L 3513 0 
L 2938 0 
L 2938 2094 
Q 2938 2591 2744 2837 
Q 2550 3084 2163 3084 
Q 1697 3084 1428 2787 
Q 1159 2491 1159 1978 
L 1159 0 
L 581 0 
L 581 3500 
L 1159 3500 
L 1159 2956 
Q 1366 3272 1645 3428 
Q 1925 3584 2291 3584 
Q 2894 3584 3203 3211 
Q 3513 2838 3513 2113 
z
" transform="scale(0.015625)"/>
       <path id="DejaVuSans-74" d="M 1172 4494 
L 1172 3500 
L 2356 3500 
L 2356 3053 
L 1172 3053 
L 1172 1153 
Q 1172 725 1289 603 
Q 1406 481 1766 481 
L 2356 481 
L 2356 0 
L 1766 0 
Q 1100 0 847 248 
Q 594 497 594 1153 
L 594 3053 
L 172 3053 
L 172 3500 
L 594 3500 
L 594 4494 
L 1172 4494 
z
" transform="scale(0.015625)"/>
      </defs>
      <use xlink:href="#DejaVuSans-4e"/>
      <use xlink:href="#DejaVuSans-6f" x="74.804688"/>
      <use xlink:href="#DejaVuSans-6d" x="135.986328"/>
      <use xlink:href="#DejaVuSans-62" x="233.398438"/>
      <use xlink:href="#DejaVuSans-72" x="296.875"/>
      <use xlink:href="#DejaVuSans-65" x="335.738281"/>
      <use xlink:href="#DejaVuSans-20" x="397.261719"/>
      <use xlink:href="#DejaVuSans-64" x="429.048828"/>
      <use xlink:href="#DejaVuSans-65" x="492.525391"/>
      <use xlink:href="#DejaVuSans-20" x="554.048828"/>
      <use xlink:href="#DejaVuSans-6a" x="585.835938"/>
      <use xlink:href="#DejaVuSans-6f" x="613.619141"/>
      <use xlink:href="#DejaVuSans-75" x="674.800781"/>
      <use xlink:href="#DejaVuSans-72" x="738.179688"/>
      <use xlink:href="#DejaVuSans-73" x="779.292969"/>
      <use xlink:href="#DejaVuSans-20" x="831.392578"/>
      <use xlink:href="#DejaVuSans-e9" x="863.179688"/>
      <use xlink:href="#DejaVuSans-63" x="924.703125"/>
      <use xlink:href="#DejaVuSans-6f" x="979.683594"/>
      <use xlink:href="#DejaVuSans-75" x="1040.865234"/>
      <use xlink:href="#DejaVuSans-6c" x="1104.244141"/>
      <use xlink:href="#DejaVuSans-e9" x="1132.027344"/>
      <use xlink:href="#DejaVuSans-73" x="1193.550781"/>
      <use xlink:href="#DejaVuSans-20" x="1245.650391"/>
      <use xlink:href="#DejaVuSans-64" x="1277.4375"/>
      <use xlink:href="#DejaVuSans-65" x="1340.914062"/>
      <use xlink:href="#DejaVuSans-70" x="1402.4375"/>
      <use xlink:href="#DejaVuSans-75" x="1465.914062"/>
      <use xlink:href="#DejaVuSans-69" x="1529.292969"/>
      <use xlink:href="#DejaVuSans-73" x="1557.076172"/>
      <use xlink:href="#DejaVuSans-20" x="1609.175781"/>
      <use xlink:href="#DejaVuSans-6c" x="1640.962891"/>
      <use xlink:href="#DejaVuSans-65" x="1668.746094"/>
      <use xlink:href="#DejaVuSans-20" x="1730.269531"/>
      <use xlink:href="#DejaVuSans-6c" x="1762.056641"/>
      <use xlink:href="#DejaVuSans-61" x="1789.839844"/>
      <use xlink:href="#DejaVuSans-6e" x="1851.119141"/>
      <use xlink:href="#DejaVuSans-63" x="1914.498047"/>
      <use xlink:href="#DejaVuSans-65" x="1969.478516"/>
      <use xlink:href="#DejaVuSans-6d" x="2031.001953"/>
      <use xlink:href="#DejaVuSans-65" x="2128.414062"/>
      <use xlink:href="#DejaVuSans-6e" x="2189.9375"/>
      <use xlink:href="#DejaVuSans-74" x="2253.316406"/>
      <use xlink:href="#DejaVuSans-20" x="2292.525391"/>
      <use xlink:href="#DejaVuSans-64" x="2324.3125"/>
      <use xlink:href="#DejaVuSans-75" x="2387.789062"/>
      <use xlink:href="#DejaVuSans-20" x="2451.167969"/>
      <use xlink:href="#DejaVuSans-70" x="2482.955078"/>
      <use xlink:href="#DejaVuSans-72" x="2546.431641"/>
      <use xlink:href="#DejaVuSans-6f" x="2585.294922"/>
      <use xlink:href="#DejaVuSans-6a" x="2646.476562"/>
      <use xlink:href="#DejaVuSans-65" x="2674.259766"/>
      <use xlink:href="#DejaVuSans-74" x="2735.783203"/>
     </g>
    </g>
   </g>
   <g id="matplotlib.axis_2">
    <g id="ytick_1">
     <g id="line2d_8">
      <path d="M 57.6 279.217493 
L 414.72 279.217493 
" clip-path="url(#p8a8c4e975b)" style="fill: none; stroke: #ffffff; stroke-linecap: round"/>
     </g>
     <g id="text_9">
      <!-- 0.3 -->
      <g style="fill: #262626" transform="translate(30.606563 283.396634) scale(0.11 -0.11)">
       <defs>
        <path id="DejaVuSans-2e" d="M 684 794 
L 1344 794 
L 1344 0 
L 684 0 
L 684 794 
z
" transform="scale(0.015625)"/>
       </defs>
       <use xlink:href="#DejaVuSans-30"/>
       <use xlink:href="#DejaVuSans-2e" x="63.623047"/>
       <use xlink:href="#DejaVuSans-33" x="95.410156"/>
      </g>
     </g>
    </g>
    <g id="ytick_2">
     <g id="line2d_9">
      <path d="M 57.6 246.981851 
L 414.72 246.981851 
" clip-path="url(#p8a8c4e975b)" style="fill: none; stroke: #ffffff; stroke-linecap: round"/>
     </g>
     <g id="text_10">
      <!-- 0.4 -->
      <g style="fill: #262626" transform="translate(30.606563 251.160992) scale(0.11 -0.11)">
       <use xlink:href="#DejaVuSans-30"/>
       <use xlink:href="#DejaVuSans-2e" x="63.623047"/>
       <use xlink:href="#DejaVuSans-34" x="95.410156"/>
      </g>
     </g>
    </g>
    <g id="ytick_3">
     <g id="line2d_10">
      <path d="M 57.6 214.746209 
L 414.72 214.746209 
" clip-path="url(#p8a8c4e975b)" style="fill: none; stroke: #ffffff; stroke-linecap: round"/>
     </g>
     <g id="text_11">
      <!-- 0.5 -->
      <g style="fill: #262626" transform="translate(30.606563 218.92535) scale(0.11 -0.11)">
       <use xlink:href="#DejaVuSans-30"/>
       <use xlink:href="#DejaVuSans-2e" x="63.623047"/>
       <use xlink:href="#DejaVuSans-35" x="95.410156"/>
      </g>
     </g>
    </g>
    <g id="ytick_4">
     <g id="line2d_11">
      <path d="M 57.6 182.510568 
L 414.72 182.510568 
" clip-path="url(#p8a8c4e975b)" style="fill: none; stroke: #ffffff; stroke-linecap: round"/>
     </g>
     <g id="text_12">
      <!-- 0.6 -->
      <g style="fill: #262626" transform="translate(30.606563 186.689708) scale(0.11 -0.11)">
       <use xlink:href="#DejaVuSans-30"/>
       <use xlink:href="#DejaVuSans-2e" x="63.623047"/>
       <use xlink:href="#DejaVuSans-36" x="95.410156"/>
      </g>
     </g>
    </g>
    <g id="ytick_5">
     <g id="line2d_12">
      <path d="M 57.6 150.274926 
L 414.72 150.274926 
" clip-path="url(#p8a8c4e975b)" style="fill: none; stroke: #ffffff; stroke-linecap: round"/>
     </g>
     <g id="text_13">
      <!-- 0.7 -->
      <g style="fill: #262626" transform="translate(30.606563 154.454066) scale(0.11 -0.11)">
       <defs>
        <path id="DejaVuSans-37" d="M 525 4666 
L 3525 4666 
L 3525 4397 
L 1831 0 
L 1172 0 
L 2766 4134 
L 525 4134 
L 525 4666 
z
" transform="scale(0.015625)"/>
       </defs>
       <use xlink:href="#DejaVuSans-30"/>
       <use xlink:href="#DejaVuSans-2e" x="63.623047"/>
       <use xlink:href="#DejaVuSans-37" x="95.410156"/>
      </g>
     </g>
    </g>
    <g id="ytick_6">
     <g id="line2d_13">
      <path d="M 57.6 118.039284 
L 414.72 118.039284 
" clip-path="url(#p8a8c4e975b)" style="fill: none; stroke: #ffffff; stroke-linecap: round"/>
     </g>
     <g id="text_14">
      <!-- 0.8 -->
      <g style="fill: #262626" transform="translate(30.606563 122.218424) scale(0.11 -0.11)">
       <defs>
        <path id="DejaVuSans-38" d="M 2034 2216 
Q 1584 2216 1326 1975 
Q 1069 1734 1069 1313 
Q 1069 891 1326 650 
Q 1584 409 2034 409 
Q 2484 409 2743 651 
Q 3003 894 3003 1313 
Q 3003 1734 2745 1975 
Q 2488 2216 2034 2216 
z
M 1403 2484 
Q 997 2584 770 2862 
Q 544 3141 544 3541 
Q 544 4100 942 4425 
Q 1341 4750 2034 4750 
Q 2731 4750 3128 4425 
Q 3525 4100 3525 3541 
Q 3525 3141 3298 2862 
Q 3072 2584 2669 2484 
Q 3125 2378 3379 2068 
Q 3634 1759 3634 1313 
Q 3634 634 3220 271 
Q 2806 -91 2034 -91 
Q 1263 -91 848 271 
Q 434 634 434 1313 
Q 434 1759 690 2068 
Q 947 2378 1403 2484 
z
M 1172 3481 
Q 1172 3119 1398 2916 
Q 1625 2713 2034 2713 
Q 2441 2713 2670 2916 
Q 2900 3119 2900 3481 
Q 2900 3844 2670 4047 
Q 2441 4250 2034 4250 
Q 1625 4250 1398 4047 
Q 1172 3844 1172 3481 
z
" transform="scale(0.015625)"/>
       </defs>
       <use xlink:href="#DejaVuSans-30"/>
       <use xlink:href="#DejaVuSans-2e" x="63.623047"/>
       <use xlink:href="#DejaVuSans-38" x="95.410156"/>
      </g>
     </g>
    </g>
    <g id="ytick_7">
     <g id="line2d_14">
      <path d="M 57.6 85.803642 
L 414.72 85.803642 
" clip-path="url(#p8a8c4e975b)" style="fill: none; stroke: #ffffff; stroke-linecap: round"/>
     </g>
     <g id="text_15">
      <!-- 0.9 -->
      <g style="fill: #262626" transform="translate(30.606563 89.982783) scale(0.11 -0.11)">
       <defs>
        <path id="DejaVuSans-39" d="M 703 97 
L 703 672 
Q 941 559 1184 500 
Q 1428 441 1663 441 
Q 2288 441 2617 861 
Q 2947 1281 2994 2138 
Q 2813 1869 2534 1725 
Q 2256 1581 1919 1581 
Q 1219 1581 811 2004 
Q 403 2428 403 3163 
Q 403 3881 828 4315 
Q 1253 4750 1959 4750 
Q 2769 4750 3195 4129 
Q 3622 3509 3622 2328 
Q 3622 1225 3098 567 
Q 2575 -91 1691 -91 
Q 1453 -91 1209 -44 
Q 966 3 703 97 
z
M 1959 2075 
Q 2384 2075 2632 2365 
Q 2881 2656 2881 3163 
Q 2881 3666 2632 3958 
Q 2384 4250 1959 4250 
Q 1534 4250 1286 3958 
Q 1038 3666 1038 3163 
Q 1038 2656 1286 2365 
Q 1534 2075 1959 2075 
z
" transform="scale(0.015625)"/>
       </defs>
       <use xlink:href="#DejaVuSans-30"/>
       <use xlink:href="#DejaVuSans-2e" x="63.623047"/>
       <use xlink:href="#DejaVuSans-39" x="95.410156"/>
      </g>
     </g>
    </g>
    <g id="ytick_8">
     <g id="line2d_15">
      <path d="M 57.6 53.568 
L 414.72 53.568 
" clip-path="url(#p8a8c4e975b)" style="fill: none; stroke: #ffffff; stroke-linecap: round"/>
     </g>
     <g id="text_16">
      <!-- 1.0 -->
      <g style="fill: #262626" transform="translate(30.606563 57.747141) scale(0.11 -0.11)">
       <use xlink:href="#DejaVuSans-31"/>
       <use xlink:href="#DejaVuSans-2e" x="63.623047"/>
       <use xlink:href="#DejaVuSans-30" x="95.410156"/>
      </g>
     </g>
    </g>
    <g id="text_17">
     <!-- Fonction de survie $P(t &gt; T)$ -->
     <g style="fill: #262626" transform="translate(24.110937 253.488) rotate(-90) scale(0.12 -0.12)">
      <defs>
       <path id="DejaVuSans-46" d="M 628 4666 
L 3309 4666 
L 3309 4134 
L 1259 4134 
L 1259 2759 
L 3109 2759 
L 3109 2228 
L 1259 2228 
L 1259 0 
L 628 0 
L 628 4666 
z
" transform="scale(0.015625)"/>
       <path id="DejaVuSans-76" d="M 191 3500 
L 800 3500 
L 1894 563 
L 2988 3500 
L 3597 3500 
L 2284 0 
L 1503 0 
L 191 3500 
z
" transform="scale(0.015625)"/>
       <path id="DejaVuSans-Oblique-50" d="M 1081 4666 
L 2541 4666 
Q 3178 4666 3512 4369 
Q 3847 4072 3847 3500 
Q 3847 2731 3353 2303 
Q 2859 1875 1966 1875 
L 1172 1875 
L 806 0 
L 172 0 
L 1081 4666 
z
M 1613 4147 
L 1275 2394 
L 2069 2394 
Q 2606 2394 2893 2669 
Q 3181 2944 3181 3456 
Q 3181 3784 2986 3965 
Q 2791 4147 2438 4147 
L 1613 4147 
z
" transform="scale(0.015625)"/>
       <path id="DejaVuSans-28" d="M 1984 4856 
Q 1566 4138 1362 3434 
Q 1159 2731 1159 2009 
Q 1159 1288 1364 580 
Q 1569 -128 1984 -844 
L 1484 -844 
Q 1016 -109 783 600 
Q 550 1309 550 2009 
Q 550 2706 781 3412 
Q 1013 4119 1484 4856 
L 1984 4856 
z
" transform="scale(0.015625)"/>
       <path id="DejaVuSans-Oblique-74" d="M 2706 3500 
L 2619 3053 
L 1472 3053 
L 1100 1153 
Q 1081 1047 1072 975 
Q 1063 903 1063 863 
Q 1063 663 1183 572 
Q 1303 481 1569 481 
L 2150 481 
L 2053 0 
L 1503 0 
Q 991 0 739 200 
Q 488 400 488 806 
Q 488 878 497 964 
Q 506 1050 525 1153 
L 897 3053 
L 409 3053 
L 500 3500 
L 978 3500 
L 1172 4494 
L 1747 4494 
L 1556 3500 
L 2706 3500 
z
" transform="scale(0.015625)"/>
       <path id="DejaVuSans-3e" d="M 678 3150 
L 678 3719 
L 4684 2266 
L 4684 1747 
L 678 294 
L 678 863 
L 3897 2003 
L 678 3150 
z
" transform="scale(0.015625)"/>
       <path id="DejaVuSans-Oblique-54" d="M 378 4666 
L 4325 4666 
L 4225 4134 
L 2559 4134 
L 1759 0 
L 1125 0 
L 1925 4134 
L 275 4134 
L 378 4666 
z
" transform="scale(0.015625)"/>
       <path id="DejaVuSans-29" d="M 513 4856 
L 1013 4856 
Q 1481 4119 1714 3412 
Q 1947 2706 1947 2009 
Q 1947 1309 1714 600 
Q 1481 -109 1013 -844 
L 513 -844 
Q 928 -128 1133 580 
Q 1338 1288 1338 2009 
Q 1338 2731 1133 3434 
Q 928 4138 513 4856 
z
" transform="scale(0.015625)"/>
      </defs>
      <use xlink:href="#DejaVuSans-46" transform="translate(0 0.015625)"/>
      <use xlink:href="#DejaVuSans-6f" transform="translate(57.519531 0.015625)"/>
      <use xlink:href="#DejaVuSans-6e" transform="translate(118.701172 0.015625)"/>
      <use xlink:href="#DejaVuSans-63" transform="translate(182.080078 0.015625)"/>
      <use xlink:href="#DejaVuSans-74" transform="translate(237.060547 0.015625)"/>
      <use xlink:href="#DejaVuSans-69" transform="translate(276.269531 0.015625)"/>
      <use xlink:href="#DejaVuSans-6f" transform="translate(304.052734 0.015625)"/>
      <use xlink:href="#DejaVuSans-6e" transform="translate(365.234375 0.015625)"/>
      <use xlink:href="#DejaVuSans-20" transform="translate(428.613281 0.015625)"/>
      <use xlink:href="#DejaVuSans-64" transform="translate(460.400391 0.015625)"/>
      <use xlink:href="#DejaVuSans-65" transform="translate(523.876953 0.015625)"/>
      <use xlink:href="#DejaVuSans-20" transform="translate(585.400391 0.015625)"/>
      <use xlink:href="#DejaVuSans-73" transform="translate(617.1875 0.015625)"/>
      <use xlink:href="#DejaVuSans-75" transform="translate(669.287109 0.015625)"/>
      <use xlink:href="#DejaVuSans-72" transform="translate(732.666016 0.015625)"/>
      <use xlink:href="#DejaVuSans-76" transform="translate(773.779297 0.015625)"/>
      <use xlink:href="#DejaVuSans-69" transform="translate(832.958984 0.015625)"/>
      <use xlink:href="#DejaVuSans-65" transform="translate(860.742188 0.015625)"/>
      <use xlink:href="#DejaVuSans-20" transform="translate(922.265625 0.015625)"/>
      <use xlink:href="#DejaVuSans-Oblique-50" transform="translate(954.052734 0.015625)"/>
      <use xlink:href="#DejaVuSans-28" transform="translate(1014.355469 0.015625)"/>
      <use xlink:href="#DejaVuSans-Oblique-74" transform="translate(1053.369141 0.015625)"/>
      <use xlink:href="#DejaVuSans-3e" transform="translate(1112.060547 0.015625)"/>
      <use xlink:href="#DejaVuSans-Oblique-54" transform="translate(1215.332031 0.015625)"/>
      <use xlink:href="#DejaVuSans-29" transform="translate(1276.416016 0.015625)"/>
     </g>
    </g>
   </g>
   <g id="PolyCollection_1">
    <defs>
     <path id="m5301834831" d="M 73.832727 -292.032 
L 73.832727 -292.032 
L 79.243636 -292.032 
L 79.243636 -274.193871 
L 84.654545 -274.193871 
L 84.654545 -268.3165 
L 90.065455 -268.3165 
L 90.065455 -263.86036 
L 95.476364 -263.86036 
L 95.476364 -260.15029 
L 100.887273 -260.15029 
L 100.887273 -256.612446 
L 106.298182 -256.612446 
L 106.298182 -254.286238 
L 111.709091 -254.286238 
L 111.709091 -250.921365 
L 117.12 -250.921365 
L 117.12 -248.759137 
L 122.530909 -248.759137 
L 122.530909 -245.321461 
L 127.941818 -245.321461 
L 127.941818 -242.685466 
L 133.352727 -242.685466 
L 133.352727 -240.126085 
L 138.763636 -240.126085 
L 138.763636 -237.24808 
L 144.174545 -237.24808 
L 144.174545 -235.010284 
L 149.585455 -235.010284 
L 149.585455 -232.37412 
L 154.996364 -232.37412 
L 154.996364 -228.606258 
L 160.407273 -228.606258 
L 160.407273 -226.018512 
L 165.818182 -226.018512 
L 165.818182 -223.104841 
L 171.229091 -223.104841 
L 171.229091 -220.676053 
L 176.64 -220.676053 
L 176.64 -217.597594 
L 182.050909 -217.597594 
L 182.050909 -213.946627 
L 187.461818 -213.946627 
L 187.461818 -210.024453 
L 192.872727 -210.024453 
L 192.872727 -205.974619 
L 198.283636 -205.974619 
L 198.283636 -201.83131 
L 203.694545 -201.83131 
L 203.694545 -197.100487 
L 209.105455 -197.100487 
L 209.105455 -192.275428 
L 214.516364 -192.275428 
L 214.516364 -186.726116 
L 219.927273 -186.726116 
L 219.927273 -181.241087 
L 225.338182 -181.241087 
L 225.338182 -174.632102 
L 230.749091 -174.632102 
L 230.749091 -166.571706 
L 236.16 -166.571706 
L 236.16 -152.917945 
L 241.570909 -152.917945 
L 241.570909 -147.939336 
L 246.981818 -147.939336 
L 246.981818 -143.817044 
L 252.392727 -143.817044 
L 252.392727 -138.768834 
L 257.803636 -138.768834 
L 257.803636 -136.388663 
L 263.214545 -136.388663 
L 263.214545 -132.946997 
L 268.625455 -132.946997 
L 268.625455 -128.738659 
L 274.036364 -128.738659 
L 274.036364 -125.332764 
L 279.447273 -125.332764 
L 279.447273 -124.408754 
L 284.858182 -124.408754 
L 284.858182 -121.840956 
L 290.269091 -121.840956 
L 290.269091 -118.698566 
L 295.68 -118.698566 
L 295.68 -115.420724 
L 301.090909 -115.420724 
L 301.090909 -113.751717 
L 306.501818 -113.751717 
L 306.501818 -109.534854 
L 311.912727 -109.534854 
L 311.912727 -106.699305 
L 317.323636 -106.699305 
L 317.323636 -103.052772 
L 322.734545 -103.052772 
L 322.734545 -101.824848 
L 328.145455 -101.824848 
L 328.145455 -99.322841 
L 333.556364 -99.322841 
L 333.556364 -98.483078 
L 338.967273 -98.483078 
L 338.967273 -97.633485 
L 344.378182 -97.633485 
L 344.378182 -95.040663 
L 349.789091 -95.040663 
L 349.789091 -92.788716 
L 355.2 -92.788716 
L 355.2 -89.592196 
L 360.610909 -89.592196 
L 360.610909 -87.292976 
L 366.021818 -87.292976 
L 366.021818 -85.87921 
L 371.432727 -85.87921 
L 371.432727 -84.923134 
L 376.843636 -84.923134 
L 376.843636 -84.433599 
L 382.254545 -84.433599 
L 382.254545 -81.939389 
L 387.665455 -81.939389 
L 387.665455 -79.341926 
L 393.076364 -79.341926 
L 393.076364 -72.977011 
L 398.487273 -72.977011 
L 398.487273 -67.094132 
L 398.487273 -85.520534 
L 398.487273 -85.520534 
L 398.487273 -89.511701 
L 393.076364 -89.511701 
L 393.076364 -95.284925 
L 387.665455 -95.284925 
L 387.665455 -97.619195 
L 382.254545 -97.619195 
L 382.254545 -99.862654 
L 376.843636 -99.862654 
L 376.843636 -100.302736 
L 371.432727 -100.302736 
L 371.432727 -101.164656 
L 366.021818 -101.164656 
L 366.021818 -102.438566 
L 360.610909 -102.438566 
L 360.610909 -104.509674 
L 355.2 -104.509674 
L 355.2 -107.370261 
L 349.789091 -107.370261 
L 349.789091 -109.374863 
L 344.378182 -109.374863 
L 344.378182 -111.685593 
L 338.967273 -111.685593 
L 338.967273 -112.441485 
L 333.556364 -112.441485 
L 333.556364 -113.1885 
L 328.145455 -113.1885 
L 328.145455 -115.406139 
L 322.734545 -115.406139 
L 322.734545 -116.492387 
L 317.323636 -116.492387 
L 317.323636 -119.874533 
L 311.912727 -119.874533 
L 311.912727 -122.516559 
L 306.501818 -122.516559 
L 306.501818 -126.425799 
L 301.090909 -126.425799 
L 301.090909 -127.967084 
L 295.68 -127.967084 
L 295.68 -130.988336 
L 290.269091 -130.988336 
L 290.269091 -133.919664 
L 284.858182 -133.919664 
L 284.858182 -136.315497 
L 279.447273 -136.315497 
L 279.447273 -137.176469 
L 274.036364 -137.176469 
L 274.036364 -140.346524 
L 268.625455 -140.346524 
L 268.625455 -144.252704 
L 263.214545 -144.252704 
L 263.214545 -147.465753 
L 257.803636 -147.465753 
L 257.803636 -149.684033 
L 252.392727 -149.684033 
L 252.392727 -154.375467 
L 246.981818 -154.375467 
L 246.981818 -158.196682 
L 241.570909 -158.196682 
L 241.570909 -162.809463 
L 236.16 -162.809463 
L 236.16 -176.225489 
L 230.749091 -176.225489 
L 230.749091 -184.11361 
L 225.338182 -184.11361 
L 225.338182 -190.564159 
L 219.927273 -190.564159 
L 219.927273 -195.903483 
L 214.516364 -195.903483 
L 214.516364 -201.291709 
L 209.105455 -201.291709 
L 209.105455 -205.96745 
L 203.694545 -205.96745 
L 203.694545 -210.540806 
L 198.283636 -210.540806 
L 198.283636 -214.536642 
L 192.872727 -214.536642 
L 192.872727 -218.433629 
L 187.461818 -218.433629 
L 187.461818 -222.201644 
L 182.050909 -222.201644 
L 182.050909 -225.702508 
L 176.64 -225.702508 
L 176.64 -228.648182 
L 171.229091 -228.648182 
L 171.229091 -230.967917 
L 165.818182 -230.967917 
L 165.818182 -233.745489 
L 160.407273 -233.745489 
L 160.407273 -236.207428 
L 154.996364 -236.207428 
L 154.996364 -239.78556 
L 149.585455 -239.78556 
L 149.585455 -242.283082 
L 144.174545 -242.283082 
L 144.174545 -244.398628 
L 138.763636 -244.398628 
L 138.763636 -247.112965 
L 133.352727 -247.112965 
L 133.352727 -249.520332 
L 127.941818 -249.520332 
L 127.941818 -251.993354 
L 122.530909 -251.993354 
L 122.530909 -255.20734 
L 117.12 -255.20734 
L 117.12 -257.221744 
L 111.709091 -257.221744 
L 111.709091 -260.345005 
L 106.298182 -260.345005 
L 106.298182 -262.495082 
L 100.887273 -262.495082 
L 100.887273 -265.748843 
L 95.476364 -265.748843 
L 95.476364 -269.137211 
L 90.065455 -269.137211 
L 90.065455 -273.168328 
L 84.654545 -273.168328 
L 84.654545 -278.401513 
L 79.243636 -278.401513 
L 79.243636 -292.032 
L 73.832727 -292.032 
z
" style="stroke: #4c72b0; stroke-opacity: 0.25"/>
    </defs>
    <g clip-path="url(#p8a8c4e975b)">
     <use xlink:href="#m5301834831" x="0" y="345.6" style="fill: #4c72b0; fill-opacity: 0.25; stroke: #4c72b0; stroke-opacity: 0.25"/>
    </g>
   </g>
   <g id="PolyCollection_2">
    <defs>
     <path id="mc1b0a7b11c" d="M 73.832727 -292.032 
L 73.832727 -292.032 
L 79.243636 -292.032 
L 79.243636 -273.668811 
L 84.654545 -273.668811 
L 84.654545 -267.48439 
L 90.065455 -267.48439 
L 90.065455 -262.959812 
L 95.476364 -262.959812 
L 95.476364 -259.058059 
L 100.887273 -259.058059 
L 100.887273 -255.37026 
L 106.298182 -255.37026 
L 106.298182 -253.183104 
L 111.709091 -253.183104 
L 111.709091 -249.610872 
L 117.12 -249.610872 
L 117.12 -247.032912 
L 122.530909 -247.032912 
L 122.530909 -242.976357 
L 127.941818 -242.976357 
L 127.941818 -240.111922 
L 133.352727 -240.111922 
L 133.352727 -237.541056 
L 138.763636 -237.541056 
L 138.763636 -234.379245 
L 144.174545 -234.379245 
L 144.174545 -232.107999 
L 149.585455 -232.107999 
L 149.585455 -229.936099 
L 154.996364 -229.936099 
L 154.996364 -226.275551 
L 160.407273 -226.275551 
L 160.407273 -223.289823 
L 165.818182 -223.289823 
L 165.818182 -220.105253 
L 171.229091 -220.105253 
L 171.229091 -217.616069 
L 176.64 -217.616069 
L 176.64 -214.129453 
L 182.050909 -214.129453 
L 182.050909 -210.440762 
L 187.461818 -210.440762 
L 187.461818 -205.928989 
L 192.872727 -205.928989 
L 192.872727 -201.671665 
L 198.283636 -201.671665 
L 198.283636 -197.104641 
L 203.694545 -197.104641 
L 203.694545 -192.021709 
L 209.105455 -192.021709 
L 209.105455 -187.027185 
L 214.516364 -187.027185 
L 214.516364 -180.848653 
L 219.927273 -180.848653 
L 219.927273 -174.550217 
L 225.338182 -174.550217 
L 225.338182 -166.892638 
L 230.749091 -166.892638 
L 230.749091 -157.884724 
L 236.16 -157.884724 
L 236.16 -143.122649 
L 241.570909 -143.122649 
L 241.570909 -137.859736 
L 246.981818 -137.859736 
L 246.981818 -133.423293 
L 252.392727 -133.423293 
L 252.392727 -127.46398 
L 257.803636 -127.46398 
L 257.803636 -124.884378 
L 263.214545 -124.884378 
L 263.214545 -121.283455 
L 268.625455 -121.283455 
L 268.625455 -117.055888 
L 274.036364 -117.055888 
L 274.036364 -112.991474 
L 279.447273 -112.991474 
L 279.447273 -111.89152 
L 284.858182 -111.89152 
L 284.858182 -108.842903 
L 290.269091 -108.842903 
L 290.269091 -105.110522 
L 295.68 -105.110522 
L 295.68 -101.534482 
L 301.090909 -101.534482 
L 301.090909 -100.539671 
L 306.501818 -100.539671 
L 306.501818 -96.500094 
L 311.912727 -96.500094 
L 311.912727 -93.111358 
L 317.323636 -93.111358 
L 317.323636 -88.753451 
L 322.734545 -88.753451 
L 322.734545 -87.75146 
L 328.145455 -87.75146 
L 328.145455 -85.692874 
L 333.556364 -85.692874 
L 333.556364 -85.172643 
L 338.967273 -85.172643 
L 338.967273 -84.129061 
L 344.378182 -84.129061 
L 344.378182 -81.469305 
L 349.789091 -81.469305 
L 349.789091 -78.67939 
L 355.2 -78.67939 
L 355.2 -74.718739 
L 360.610909 -74.718739 
L 360.610909 -71.892384 
L 366.021818 -71.892384 
L 366.021818 -71.309795 
L 371.432727 -71.309795 
L 371.432727 -70.126459 
L 376.843636 -70.126459 
L 376.843636 -69.521741 
L 382.254545 -69.521741 
L 382.254545 -67.051129 
L 387.665455 -67.051129 
L 387.665455 -63.797939 
L 393.076364 -63.797939 
L 393.076364 -57.752244 
L 398.487273 -57.752244 
L 398.487273 -50.112 
L 398.487273 -70.815809 
L 398.487273 -70.815809 
L 398.487273 -75.789598 
L 393.076364 -75.789598 
L 393.076364 -81.262251 
L 387.665455 -81.262251 
L 387.665455 -84.179973 
L 382.254545 -84.179973 
L 382.254545 -86.400769 
L 376.843636 -86.400769 
L 376.843636 -86.944128 
L 371.432727 -86.944128 
L 371.432727 -88.009568 
L 366.021818 -88.009568 
L 366.021818 -88.534426 
L 360.610909 -88.534426 
L 360.610909 -91.084083 
L 355.2 -91.084083 
L 355.2 -94.616275 
L 349.789091 -94.616275 
L 349.789091 -97.083441 
L 344.378182 -97.083441 
L 344.378182 -99.438886 
L 338.967273 -99.438886 
L 338.967273 -100.361217 
L 333.556364 -100.361217 
L 333.556364 -100.820086 
L 328.145455 -100.820086 
L 328.145455 -102.632196 
L 322.734545 -102.632196 
L 322.734545 -103.514824 
L 317.323636 -103.514824 
L 317.323636 -107.575021 
L 311.912727 -107.575021 
L 311.912727 -110.744034 
L 306.501818 -110.744034 
L 306.501818 -114.498593 
L 301.090909 -114.498593 
L 301.090909 -115.420863 
L 295.68 -115.420863 
L 295.68 -118.731895 
L 290.269091 -118.731895 
L 290.269091 -122.231201 
L 284.858182 -122.231201 
L 284.858182 -125.088133 
L 279.447273 -125.088133 
L 279.447273 -126.116585 
L 274.036364 -126.116585 
L 274.036364 -129.908726 
L 268.625455 -129.908726 
L 268.625455 -133.840123 
L 263.214545 -133.840123 
L 263.214545 -137.212516 
L 257.803636 -137.212516 
L 257.803636 -139.624771 
L 252.392727 -139.624771 
L 252.392727 -145.178653 
L 246.981818 -145.178653 
L 246.981818 -149.298072 
L 241.570909 -149.298072 
L 241.570909 -154.181787 
L 236.16 -154.181787 
L 236.16 -168.722788 
L 230.749091 -168.722788 
L 230.749091 -177.553678 
L 225.338182 -177.553678 
L 225.338182 -185.036448 
L 219.927273 -185.036448 
L 219.927273 -191.17029 
L 214.516364 -191.17029 
L 214.516364 -197.168718 
L 209.105455 -197.168718 
L 209.105455 -202.006503 
L 203.694545 -202.006503 
L 203.694545 -206.916893 
L 198.283636 -206.916893 
L 198.283636 -211.316917 
L 192.872727 -211.316917 
L 192.872727 -215.407816 
L 187.461818 -215.407816 
L 187.461818 -219.734718 
L 182.050909 -219.734718 
L 182.050909 -223.264219 
L 176.64 -223.264219 
L 176.64 -226.592287 
L 171.229091 -226.592287 
L 171.229091 -228.963245 
L 165.818182 -228.963245 
L 165.818182 -231.990188 
L 160.407273 -231.990188 
L 160.407273 -234.821204 
L 154.996364 -234.821204 
L 154.996364 -238.284231 
L 149.585455 -238.284231 
L 149.585455 -240.334108 
L 144.174545 -240.334108 
L 144.174545 -242.473364 
L 138.763636 -242.473364 
L 138.763636 -245.443528 
L 133.352727 -245.443528 
L 133.352727 -247.851383 
L 127.941818 -247.851383 
L 127.941818 -250.526562 
L 122.530909 -250.526562 
L 122.530909 -254.29918 
L 117.12 -254.29918 
L 117.12 -256.68607 
L 111.709091 -256.68607 
L 111.709091 -259.978962 
L 106.298182 -259.978962 
L 106.298182 -261.98576 
L 100.887273 -261.98576 
L 100.887273 -265.35143 
L 95.476364 -265.35143 
L 95.476364 -268.884411 
L 90.065455 -268.884411 
L 90.065455 -272.938361 
L 84.654545 -272.938361 
L 84.654545 -278.382557 
L 79.243636 -278.382557 
L 79.243636 -292.032 
L 73.832727 -292.032 
z
" style="stroke: #dd8452; stroke-opacity: 0.25"/>
    </defs>
    <g clip-path="url(#p8a8c4e975b)">
     <use xlink:href="#mc1b0a7b11c" x="0" y="345.6" style="fill: #dd8452; fill-opacity: 0.25; stroke: #dd8452; stroke-opacity: 0.25"/>
    </g>
   </g>
   <g id="PolyCollection_3">
    <defs>
     <path id="m9db0e281a4" d="M 73.832727 -292.032 
L 73.832727 -292.032 
L 79.243636 -292.032 
L 79.243636 -271.998439 
L 84.654545 -271.998439 
L 84.654545 -266.949082 
L 90.065455 -266.949082 
L 90.065455 -262.42784 
L 95.476364 -262.42784 
L 95.476364 -259.293376 
L 100.887273 -259.293376 
L 100.887273 -256.174973 
L 106.298182 -256.174973 
L 106.298182 -253.074883 
L 111.709091 -253.074883 
L 111.709091 -250.422298 
L 117.12 -250.422298 
L 117.12 -249.980589 
L 122.530909 -249.980589 
L 122.530909 -249.098067 
L 127.941818 -249.098067 
L 127.941818 -247.330876 
L 133.352727 -247.330876 
L 133.352727 -244.679915 
L 138.763636 -244.679915 
L 138.763636 -242.915006 
L 144.174545 -242.915006 
L 144.174545 -240.710858 
L 149.585455 -240.710858 
L 149.585455 -235.881906 
L 154.996364 -235.881906 
L 154.996364 -231.46292 
L 160.407273 -231.46292 
L 160.407273 -230.561714 
L 165.818182 -230.561714 
L 165.818182 -228.752408 
L 171.229091 -228.752408 
L 171.229091 -226.495397 
L 176.64 -226.495397 
L 176.64 -225.141172 
L 182.050909 -225.141172 
L 182.050909 -221.519036 
L 187.461818 -221.519036 
L 187.461818 -220.143995 
L 192.872727 -220.143995 
L 192.872727 -216.894555 
L 198.283636 -216.894555 
L 198.283636 -214.557277 
L 203.694545 -214.557277 
L 203.694545 -211.286672 
L 209.105455 -211.286672 
L 209.105455 -207.086274 
L 214.516364 -207.086274 
L 214.516364 -204.254725 
L 219.927273 -204.254725 
L 219.927273 -202.355159 
L 225.338182 -202.355159 
L 225.338182 -200.434816 
L 230.749091 -200.434816 
L 230.749091 -196.554104 
L 236.16 -196.554104 
L 236.16 -187.71228 
L 241.570909 -187.71228 
L 241.570909 -184.079665 
L 246.981818 -184.079665 
L 246.981818 -181.524703 
L 252.392727 -181.524703 
L 252.392727 -181.524703 
L 257.803636 -181.524703 
L 257.803636 -180.158256 
L 263.214545 -180.158256 
L 263.214545 -177.406979 
L 268.625455 -177.406979 
L 268.625455 -172.981618 
L 274.036364 -172.981618 
L 274.036364 -172.981618 
L 279.447273 -172.981618 
L 279.447273 -172.981618 
L 284.858182 -172.981618 
L 284.858182 -172.981618 
L 290.269091 -172.981618 
L 290.269091 -172.981618 
L 295.68 -172.981618 
L 295.68 -171.10037 
L 301.090909 -171.10037 
L 301.090909 -165.430241 
L 306.501818 -165.430241 
L 306.501818 -159.861089 
L 311.912727 -159.861089 
L 311.912727 -159.861089 
L 317.323636 -159.861089 
L 317.323636 -159.861089 
L 322.734545 -159.861089 
L 322.734545 -157.219774 
L 328.145455 -157.219774 
L 328.145455 -152.019911 
L 333.556364 -152.019911 
L 333.556364 -149.457079 
L 338.967273 -149.457079 
L 338.967273 -149.457079 
L 344.378182 -149.457079 
L 344.378182 -146.772313 
L 349.789091 -146.772313 
L 349.789091 -146.772313 
L 355.2 -146.772313 
L 355.2 -146.772313 
L 360.610909 -146.772313 
L 360.610909 -146.772313 
L 366.021818 -146.772313 
L 366.021818 -140.985994 
L 371.432727 -140.985994 
L 371.432727 -140.985994 
L 376.843636 -140.985994 
L 376.843636 -140.985994 
L 382.254545 -140.985994 
L 382.254545 -137.944552 
L 393.076364 -137.944552 
L 393.076364 -128.853328 
L 398.487273 -128.853328 
L 398.487273 -128.853328 
L 398.487273 -166.901408 
L 398.487273 -166.901408 
L 398.487273 -166.901408 
L 393.076364 -166.901408 
L 393.076364 -173.382209 
L 382.254545 -173.382209 
L 382.254545 -175.473474 
L 376.843636 -175.473474 
L 376.843636 -175.473474 
L 371.432727 -175.473474 
L 371.432727 -175.473474 
L 366.021818 -175.473474 
L 366.021818 -179.43558 
L 360.610909 -179.43558 
L 360.610909 -179.43558 
L 355.2 -179.43558 
L 355.2 -179.43558 
L 349.789091 -179.43558 
L 349.789091 -179.43558 
L 344.378182 -179.43558 
L 344.378182 -181.286954 
L 338.967273 -181.286954 
L 338.967273 -181.286954 
L 333.556364 -181.286954 
L 333.556364 -183.0619 
L 328.145455 -183.0619 
L 328.145455 -186.553466 
L 322.734545 -186.553466 
L 322.734545 -188.266371 
L 317.323636 -188.266371 
L 317.323636 -188.266371 
L 311.912727 -188.266371 
L 311.912727 -188.266371 
L 306.501818 -188.266371 
L 306.501818 -192.348431 
L 301.090909 -192.348431 
L 301.090909 -196.350624 
L 295.68 -196.350624 
L 295.68 -197.650155 
L 290.269091 -197.650155 
L 290.269091 -197.650155 
L 284.858182 -197.650155 
L 284.858182 -197.650155 
L 279.447273 -197.650155 
L 279.447273 -197.650155 
L 274.036364 -197.650155 
L 274.036364 -197.650155 
L 268.625455 -197.650155 
L 268.625455 -200.93873 
L 263.214545 -200.93873 
L 263.214545 -202.994959 
L 257.803636 -202.994959 
L 257.803636 -204.007914 
L 252.392727 -204.007914 
L 252.392727 -204.007914 
L 246.981818 -204.007914 
L 246.981818 -205.925894 
L 241.570909 -205.925894 
L 241.570909 -208.658652 
L 236.16 -208.658652 
L 236.16 -216.758014 
L 230.749091 -216.758014 
L 230.749091 -220.289339 
L 225.338182 -220.289339 
L 225.338182 -222.032618 
L 219.927273 -222.032618 
L 219.927273 -223.755419 
L 214.516364 -223.755419 
L 214.516364 -226.317379 
L 209.105455 -226.317379 
L 209.105455 -230.105168 
L 203.694545 -230.105168 
L 203.694545 -233.037157 
L 198.283636 -233.037157 
L 198.283636 -235.122884 
L 192.872727 -235.122884 
L 192.872727 -238.012587 
L 187.461818 -238.012587 
L 187.461818 -239.233241 
L 182.050909 -239.233241 
L 182.050909 -242.441522 
L 176.64 -242.441522 
L 176.64 -243.636326 
L 171.229091 -243.636326 
L 171.229091 -245.620993 
L 165.818182 -245.620993 
L 165.818182 -247.205207 
L 160.407273 -247.205207 
L 160.407273 -247.992719 
L 154.996364 -247.992719 
L 154.996364 -251.846967 
L 149.585455 -251.846967 
L 149.585455 -256.022365 
L 144.174545 -256.022365 
L 144.174545 -257.911234 
L 138.763636 -257.911234 
L 138.763636 -259.415944 
L 133.352727 -259.415944 
L 133.352727 -261.66228 
L 127.941818 -261.66228 
L 127.941818 -263.150485 
L 122.530909 -263.150485 
L 122.530909 -263.890961 
L 117.12 -263.890961 
L 117.12 -264.260752 
L 111.709091 -264.260752 
L 111.709091 -266.470167 
L 106.298182 -266.470167 
L 106.298182 -269.026202 
L 100.887273 -269.026202 
L 100.887273 -271.56385 
L 95.476364 -271.56385 
L 95.476364 -274.077346 
L 90.065455 -274.077346 
L 90.065455 -277.624162 
L 84.654545 -277.624162 
L 84.654545 -281.448523 
L 79.243636 -281.448523 
L 79.243636 -292.032 
L 73.832727 -292.032 
z
" style="stroke: #55a868; stroke-opacity: 0.25"/>
    </defs>
    <g clip-path="url(#p8a8c4e975b)">
     <use xlink:href="#m9db0e281a4" x="0" y="345.6" style="fill: #55a868; fill-opacity: 0.25; stroke: #55a868; stroke-opacity: 0.25"/>
    </g>
   </g>
   <g id="line2d_16">
    <path d="M 73.832727 53.568 
L 79.243636 53.568 
L 79.243636 69.164646 
L 84.654545 69.164646 
L 84.654545 74.723846 
L 90.065455 74.723846 
L 90.065455 78.970458 
L 95.476364 78.970458 
L 95.476364 82.522169 
L 100.887273 82.522169 
L 100.887273 85.920353 
L 106.298182 85.920353 
L 106.298182 88.160065 
L 111.709091 88.160065 
L 111.709091 91.406399 
L 117.12 91.406399 
L 117.12 93.496167 
L 122.530909 93.496167 
L 122.530909 96.824316 
L 127.941818 96.824316 
L 127.941818 99.380603 
L 133.352727 99.380603 
L 133.352727 101.865692 
L 138.763636 101.865692 
L 138.763636 104.663796 
L 144.174545 104.663796 
L 144.174545 106.841971 
L 149.585455 106.841971 
L 149.585455 109.410592 
L 154.996364 109.410592 
L 154.996364 113.086105 
L 160.407273 113.086105 
L 160.407273 115.612637 
L 165.818182 115.612637 
L 165.818182 118.460168 
L 171.229091 118.460168 
L 171.229091 120.83603 
L 176.64 120.83603 
L 176.64 123.850134 
L 182.050909 123.850134 
L 182.050909 127.428476 
L 187.461818 127.428476 
L 187.461818 131.276155 
L 192.872727 131.276155 
L 192.872727 135.252197 
L 198.283636 135.252197 
L 198.283636 139.324485 
L 203.694545 139.324485 
L 203.694545 143.979713 
L 209.105455 143.979713 
L 209.105455 148.73335 
L 214.516364 148.73335 
L 214.516364 154.205836 
L 219.927273 154.205836 
L 219.927273 159.621735 
L 225.338182 159.621735 
L 225.338182 166.156053 
L 230.749091 166.156053 
L 230.749091 174.13591 
L 236.16 174.13591 
L 236.16 187.6805 
L 241.570909 187.6805 
L 241.570909 192.476523 
L 246.981818 192.476523 
L 246.981818 196.44882 
L 252.392727 196.44882 
L 252.392727 201.319765 
L 257.803636 201.319765 
L 257.803636 203.619717 
L 263.214545 203.619717 
L 263.214545 206.94833 
L 268.625455 206.94833 
L 268.625455 211.007175 
L 274.036364 211.007175 
L 274.036364 214.296747 
L 279.447273 214.296747 
L 279.447273 215.189718 
L 284.858182 215.189718 
L 284.858182 217.672979 
L 290.269091 217.672979 
L 290.269091 220.71178 
L 295.68 220.71178 
L 295.68 223.863306 
L 301.090909 223.863306 
L 301.090909 225.469585 
L 306.501818 225.469585 
L 306.501818 229.535932 
L 311.912727 229.535932 
L 311.912727 232.27729 
L 317.323636 232.27729 
L 317.323636 235.795178 
L 322.734545 235.795178 
L 322.734545 236.953271 
L 328.145455 236.953271 
L 328.145455 239.315387 
L 333.556364 239.315387 
L 333.556364 240.109626 
L 338.967273 240.109626 
L 338.967273 240.913264 
L 344.378182 240.913264 
L 344.378182 243.368012 
L 349.789091 243.368012 
L 349.789091 245.499144 
L 355.2 245.499144 
L 355.2 248.53229 
L 360.610909 248.53229 
L 360.610909 250.721158 
L 366.021818 250.721158 
L 366.021818 252.06743 
L 371.432727 252.06743 
L 371.432727 252.978143 
L 376.843636 252.978143 
L 376.843636 253.443848 
L 382.254545 253.443848 
L 382.254545 255.817503 
L 387.665455 255.817503 
L 387.665455 258.288838 
L 393.076364 258.288838 
L 393.076364 264.373437 
L 398.487273 264.373437 
L 398.487273 269.331259 
" clip-path="url(#p8a8c4e975b)" style="fill: none; stroke: #4c72b0; stroke-width: 1.5; stroke-linecap: round"/>
   </g>
   <g id="line2d_17">
    <path d="M 73.832727 53.568 
L 79.243636 53.568 
L 79.243636 69.404391 
L 84.654545 69.404391 
L 84.654545 75.223788 
L 90.065455 75.223788 
L 90.065455 79.516785 
L 95.476364 79.516785 
L 95.476364 83.237383 
L 100.887273 83.237383 
L 100.887273 86.767181 
L 106.298182 86.767181 
L 106.298182 88.86598 
L 111.709091 88.86598 
L 111.709091 92.30152 
L 117.12 92.30152 
L 117.12 94.786087 
L 122.530909 94.786087 
L 122.530909 98.704058 
L 127.941818 98.704058 
L 127.941818 101.476262 
L 133.352727 101.476262 
L 133.352727 103.967761 
L 138.763636 103.967761 
L 138.763636 107.036383 
L 144.174545 107.036383 
L 144.174545 109.24353 
L 149.585455 109.24353 
L 149.585455 111.356234 
L 154.996364 111.356234 
L 154.996364 114.921064 
L 160.407273 114.921064 
L 160.407273 117.831882 
L 165.818182 117.831882 
L 165.818182 120.94026 
L 171.229091 120.94026 
L 171.229091 123.372387 
L 176.64 123.372387 
L 176.64 126.782619 
L 182.050909 126.782619 
L 182.050909 130.394784 
L 187.461818 130.394784 
L 187.461818 134.817856 
L 192.872727 134.817856 
L 192.872727 138.995445 
L 198.283636 138.995445 
L 198.283636 143.482736 
L 203.694545 143.482736 
L 203.694545 148.483633 
L 209.105455 148.483633 
L 209.105455 153.403986 
L 214.516364 153.403986 
L 214.516364 159.497653 
L 219.927273 159.497653 
L 219.927273 165.719158 
L 225.338182 165.719158 
L 225.338182 173.295967 
L 230.749091 173.295967 
L 230.749091 182.223245 
L 236.16 182.223245 
L 236.16 196.887986 
L 241.570909 196.887986 
L 241.570909 201.962714 
L 246.981818 201.962714 
L 246.981818 206.242215 
L 252.392727 206.242215 
L 252.392727 212.001663 
L 257.803636 212.001663 
L 257.803636 214.499101 
L 263.214545 214.499101 
L 263.214545 217.988121 
L 268.625455 217.988121 
L 268.625455 222.070481 
L 274.036364 222.070481 
L 274.036364 226.002013 
L 279.447273 226.002013 
L 279.447273 227.067181 
L 284.858182 227.067181 
L 284.858182 230.02283 
L 290.269091 230.02283 
L 290.269091 233.642526 
L 295.68 233.642526 
L 295.68 237.089884 
L 301.090909 237.089884 
L 301.090909 238.04957 
L 306.501818 238.04957 
L 306.501818 241.951688 
L 311.912727 241.951688 
L 311.912727 245.235334 
L 317.323636 245.235334 
L 317.323636 249.451111 
L 322.734545 249.451111 
L 322.734545 250.394941 
L 328.145455 250.394941 
L 328.145455 252.333621 
L 333.556364 252.333621 
L 333.556364 252.82406 
L 338.967273 252.82406 
L 338.967273 253.808863 
L 344.378182 253.808863 
L 344.378182 256.321529 
L 349.789091 256.321529 
L 349.789091 258.955954 
L 355.2 258.955954 
L 355.2 262.711822 
L 360.610909 262.711822 
L 360.610909 265.40736 
L 366.021818 265.40736 
L 366.021818 265.962722 
L 371.432727 265.962722 
L 371.432727 267.090534 
L 376.843636 267.090534 
L 376.843636 267.666375 
L 382.254545 267.666375 
L 382.254545 270.019811 
L 387.665455 270.019811 
L 387.665455 273.116437 
L 393.076364 273.116437 
L 393.076364 278.899386 
L 398.487273 278.899386 
L 398.487273 285.261683 
" clip-path="url(#p8a8c4e975b)" style="fill: none; stroke: #dd8452; stroke-width: 1.5; stroke-linecap: round"/>
   </g>
   <g id="line2d_18">
    <path d="M 73.832727 53.568 
L 79.243636 53.568 
L 79.243636 68.146934 
L 84.654545 68.146934 
L 84.654545 72.601608 
L 90.065455 72.601608 
L 90.065455 76.651311 
L 95.476364 76.651311 
L 95.476364 79.486104 
L 100.887273 79.486104 
L 100.887273 82.324775 
L 106.298182 82.324775 
L 106.298182 85.163445 
L 111.709091 85.163445 
L 111.709091 87.603397 
L 117.12 87.603397 
L 117.12 88.010631 
L 122.530909 88.010631 
L 122.530909 88.825097 
L 127.941818 88.825097 
L 127.941818 90.458663 
L 133.352727 90.458663 
L 133.352727 92.916044 
L 138.763636 92.916044 
L 138.763636 94.556672 
L 144.174545 94.556672 
L 144.174545 96.610452 
L 149.585455 96.610452 
L 149.585455 101.128766 
L 154.996364 101.128766 
L 154.996364 105.279758 
L 160.407273 105.279758 
L 160.407273 106.126846 
L 165.818182 106.126846 
L 165.818182 107.829039 
L 171.229091 107.829039 
L 171.229091 109.95678 
L 176.64 109.95678 
L 176.64 111.23547 
L 182.050909 111.23547 
L 182.050909 114.661864 
L 187.461818 114.661864 
L 187.461818 115.963837 
L 192.872727 115.963837 
L 192.872727 119.042897 
L 198.283636 119.042897 
L 198.283636 121.261217 
L 203.694545 121.261217 
L 203.694545 124.372286 
L 209.105455 124.372286 
L 209.105455 128.379311 
L 214.516364 128.379311 
L 214.516364 131.084722 
L 219.927273 131.084722 
L 219.927273 132.901714 
L 225.338182 132.901714 
L 225.338182 134.739315 
L 230.749091 134.739315 
L 230.749091 138.457005 
L 236.16 138.457005 
L 236.16 146.954844 
L 241.570909 146.954844 
L 241.570909 150.120322 
L 246.981818 150.120322 
L 246.981818 152.344993 
L 252.392727 152.344993 
L 252.392727 152.344993 
L 257.803636 152.344993 
L 257.803636 153.527953 
L 263.214545 153.527953 
L 263.214545 155.919313 
L 268.625455 155.919313 
L 268.625455 159.756611 
L 274.036364 159.756611 
L 274.036364 159.756611 
L 279.447273 159.756611 
L 279.447273 159.756611 
L 284.858182 159.756611 
L 284.858182 159.756611 
L 290.269091 159.756611 
L 290.269091 159.756611 
L 295.68 159.756611 
L 295.68 161.334479 
L 301.090909 161.334479 
L 301.090909 166.138731 
L 306.501818 166.138731 
L 306.501818 170.942983 
L 311.912727 170.942983 
L 311.912727 170.942983 
L 317.323636 170.942983 
L 317.323636 170.942983 
L 322.734545 170.942983 
L 322.734545 173.100683 
L 328.145455 173.100683 
L 328.145455 177.416081 
L 333.556364 177.416081 
L 333.556364 179.573781 
L 338.967273 179.573781 
L 338.967273 179.573781 
L 344.378182 179.573781 
L 344.378182 181.830685 
L 349.789091 181.830685 
L 349.789091 181.830685 
L 355.2 181.830685 
L 355.2 181.830685 
L 360.610909 181.830685 
L 360.610909 181.830685 
L 366.021818 181.830685 
L 366.021818 186.683028 
L 371.432727 186.683028 
L 371.432727 186.683028 
L 376.843636 186.683028 
L 376.843636 186.683028 
L 382.254545 186.683028 
L 382.254545 189.240344 
L 393.076364 189.240344 
L 393.076364 197.018847 
L 398.487273 197.018847 
L 398.487273 197.018847 
" clip-path="url(#p8a8c4e975b)" style="fill: none; stroke: #55a868; stroke-width: 1.5; stroke-linecap: round"/>
   </g>
   <g id="patch_3">
    <path d="M 57.6 307.584 
L 57.6 41.472 
" style="fill: none; stroke: #ffffff; stroke-width: 1.25; stroke-linejoin: miter; stroke-linecap: square"/>
   </g>
   <g id="patch_4">
    <path d="M 414.72 307.584 
L 414.72 41.472 
" style="fill: none; stroke: #ffffff; stroke-width: 1.25; stroke-linejoin: miter; stroke-linecap: square"/>
   </g>
   <g id="patch_5">
    <path d="M 57.6 307.584 
L 414.72 307.584 
" style="fill: none; stroke: #ffffff; stroke-width: 1.25; stroke-linejoin: miter; stroke-linecap: square"/>
   </g>
   <g id="patch_6">
    <path d="M 57.6 41.472 
L 414.72 41.472 
" style="fill: none; stroke: #ffffff; stroke-width: 1.25; stroke-linejoin: miter; stroke-linecap: square"/>
   </g>
   <g id="text_18">
    <!-- Probabilité que le projet n'ait pas encore été financé -->
    <g style="fill: #262626" transform="translate(78.829688 35.472) scale(0.12 -0.12)">
     <defs>
      <path id="DejaVuSans-50" d="M 1259 4147 
L 1259 2394 
L 2053 2394 
Q 2494 2394 2734 2622 
Q 2975 2850 2975 3272 
Q 2975 3691 2734 3919 
Q 2494 4147 2053 4147 
L 1259 4147 
z
M 628 4666 
L 2053 4666 
Q 2838 4666 3239 4311 
Q 3641 3956 3641 3272 
Q 3641 2581 3239 2228 
Q 2838 1875 2053 1875 
L 1259 1875 
L 1259 0 
L 628 0 
L 628 4666 
z
" transform="scale(0.015625)"/>
      <path id="DejaVuSans-71" d="M 947 1747 
Q 947 1113 1208 752 
Q 1469 391 1925 391 
Q 2381 391 2643 752 
Q 2906 1113 2906 1747 
Q 2906 2381 2643 2742 
Q 2381 3103 1925 3103 
Q 1469 3103 1208 2742 
Q 947 2381 947 1747 
z
M 2906 525 
Q 2725 213 2448 61 
Q 2172 -91 1784 -91 
Q 1150 -91 751 415 
Q 353 922 353 1747 
Q 353 2572 751 3078 
Q 1150 3584 1784 3584 
Q 2172 3584 2448 3432 
Q 2725 3281 2906 2969 
L 2906 3500 
L 3481 3500 
L 3481 -1331 
L 2906 -1331 
L 2906 525 
z
" transform="scale(0.015625)"/>
      <path id="DejaVuSans-27" d="M 1147 4666 
L 1147 2931 
L 616 2931 
L 616 4666 
L 1147 4666 
z
" transform="scale(0.015625)"/>
      <path id="DejaVuSans-66" d="M 2375 4863 
L 2375 4384 
L 1825 4384 
Q 1516 4384 1395 4259 
Q 1275 4134 1275 3809 
L 1275 3500 
L 2222 3500 
L 2222 3053 
L 1275 3053 
L 1275 0 
L 697 0 
L 697 3053 
L 147 3053 
L 147 3500 
L 697 3500 
L 697 3744 
Q 697 4328 969 4595 
Q 1241 4863 1831 4863 
L 2375 4863 
z
" transform="scale(0.015625)"/>
     </defs>
     <use xlink:href="#DejaVuSans-50"/>
     <use xlink:href="#DejaVuSans-72" x="58.552734"/>
     <use xlink:href="#DejaVuSans-6f" x="97.416016"/>
     <use xlink:href="#DejaVuSans-62" x="158.597656"/>
     <use xlink:href="#DejaVuSans-61" x="222.074219"/>
     <use xlink:href="#DejaVuSans-62" x="283.353516"/>
     <use xlink:href="#DejaVuSans-69" x="346.830078"/>
     <use xlink:href="#DejaVuSans-6c" x="374.613281"/>
     <use xlink:href="#DejaVuSans-69" x="402.396484"/>
     <use xlink:href="#DejaVuSans-74" x="430.179688"/>
     <use xlink:href="#DejaVuSans-e9" x="469.388672"/>
     <use xlink:href="#DejaVuSans-20" x="530.912109"/>
     <use xlink:href="#DejaVuSans-71" x="562.699219"/>
     <use xlink:href="#DejaVuSans-75" x="626.175781"/>
     <use xlink:href="#DejaVuSans-65" x="689.554688"/>
     <use xlink:href="#DejaVuSans-20" x="751.078125"/>
     <use xlink:href="#DejaVuSans-6c" x="782.865234"/>
     <use xlink:href="#DejaVuSans-65" x="810.648438"/>
     <use xlink:href="#DejaVuSans-20" x="872.171875"/>
     <use xlink:href="#DejaVuSans-70" x="903.958984"/>
     <use xlink:href="#DejaVuSans-72" x="967.435547"/>
     <use xlink:href="#DejaVuSans-6f" x="1006.298828"/>
     <use xlink:href="#DejaVuSans-6a" x="1067.480469"/>
     <use xlink:href="#DejaVuSans-65" x="1095.263672"/>
     <use xlink:href="#DejaVuSans-74" x="1156.787109"/>
     <use xlink:href="#DejaVuSans-20" x="1195.996094"/>
     <use xlink:href="#DejaVuSans-6e" x="1227.783203"/>
     <use xlink:href="#DejaVuSans-27" x="1291.162109"/>
     <use xlink:href="#DejaVuSans-61" x="1318.652344"/>
     <use xlink:href="#DejaVuSans-69" x="1379.931641"/>
     <use xlink:href="#DejaVuSans-74" x="1407.714844"/>
     <use xlink:href="#DejaVuSans-20" x="1446.923828"/>
     <use xlink:href="#DejaVuSans-70" x="1478.710938"/>
     <use xlink:href="#DejaVuSans-61" x="1542.1875"/>
     <use xlink:href="#DejaVuSans-73" x="1603.466797"/>
     <use xlink:href="#DejaVuSans-20" x="1655.566406"/>
     <use xlink:href="#DejaVuSans-65" x="1687.353516"/>
     <use xlink:href="#DejaVuSans-6e" x="1748.876953"/>
     <use xlink:href="#DejaVuSans-63" x="1812.255859"/>
     <use xlink:href="#DejaVuSans-6f" x="1867.236328"/>
     <use xlink:href="#DejaVuSans-72" x="1928.417969"/>
     <use xlink:href="#DejaVuSans-65" x="1967.28125"/>
     <use xlink:href="#DejaVuSans-20" x="2028.804688"/>
     <use xlink:href="#DejaVuSans-e9" x="2060.591797"/>
     <use xlink:href="#DejaVuSans-74" x="2122.115234"/>
     <use xlink:href="#DejaVuSans-e9" x="2161.324219"/>
     <use xlink:href="#DejaVuSans-20" x="2222.847656"/>
     <use xlink:href="#DejaVuSans-66" x="2254.634766"/>
     <use xlink:href="#DejaVuSans-69" x="2289.839844"/>
     <use xlink:href="#DejaVuSans-6e" x="2317.623047"/>
     <use xlink:href="#DejaVuSans-61" x="2381.001953"/>
     <use xlink:href="#DejaVuSans-6e" x="2442.28125"/>
     <use xlink:href="#DejaVuSans-63" x="2505.660156"/>
     <use xlink:href="#DejaVuSans-e9" x="2560.640625"/>
    </g>
   </g>
   <g id="legend_1">
    <g id="patch_7">
     <path d="M 258.406563 99.149812 
L 407.02 99.149812 
Q 409.22 99.149812 409.22 96.949812 
L 409.22 49.172 
Q 409.22 46.972 407.02 46.972 
L 258.406563 46.972 
Q 256.206563 46.972 256.206563 49.172 
L 256.206563 96.949812 
Q 256.206563 99.149812 258.406563 99.149812 
z
" style="fill: #eaeaf2; opacity: 0.8; stroke: #cccccc; stroke-linejoin: miter"/>
    </g>
    <g id="line2d_19">
     <path d="M 260.606562 56.320281 
L 271.606562 56.320281 
L 271.606562 56.320281 
L 282.606562 56.320281 
L 282.606562 56.320281 
" style="fill: none; stroke: #4c72b0; stroke-width: 1.5; stroke-linecap: round"/>
    </g>
    <g id="text_19">
     <!-- population complète -->
     <g style="fill: #262626" transform="translate(291.406563 60.170281) scale(0.11 -0.11)">
      <defs>
       <path id="DejaVuSans-e8" d="M 3597 1894 
L 3597 1613 
L 953 1613 
Q 991 1019 1311 708 
Q 1631 397 2203 397 
Q 2534 397 2845 478 
Q 3156 559 3463 722 
L 3463 178 
Q 3153 47 2828 -22 
Q 2503 -91 2169 -91 
Q 1331 -91 842 396 
Q 353 884 353 1716 
Q 353 2575 817 3079 
Q 1281 3584 2069 3584 
Q 2775 3584 3186 3129 
Q 3597 2675 3597 1894 
z
M 3022 2063 
Q 3016 2534 2758 2815 
Q 2500 3097 2075 3097 
Q 1594 3097 1305 2825 
Q 1016 2553 972 2059 
L 3022 2063 
z
M 1579 5119 
L 2460 3950 
L 1982 3950 
L 963 5119 
L 1579 5119 
z
" transform="scale(0.015625)"/>
      </defs>
      <use xlink:href="#DejaVuSans-70"/>
      <use xlink:href="#DejaVuSans-6f" x="63.476562"/>
      <use xlink:href="#DejaVuSans-70" x="124.658203"/>
      <use xlink:href="#DejaVuSans-75" x="188.134766"/>
      <use xlink:href="#DejaVuSans-6c" x="251.513672"/>
      <use xlink:href="#DejaVuSans-61" x="279.296875"/>
      <use xlink:href="#DejaVuSans-74" x="340.576172"/>
      <use xlink:href="#DejaVuSans-69" x="379.785156"/>
      <use xlink:href="#DejaVuSans-6f" x="407.568359"/>
      <use xlink:href="#DejaVuSans-6e" x="468.75"/>
      <use xlink:href="#DejaVuSans-20" x="532.128906"/>
      <use xlink:href="#DejaVuSans-63" x="563.916016"/>
      <use xlink:href="#DejaVuSans-6f" x="618.896484"/>
      <use xlink:href="#DejaVuSans-6d" x="680.078125"/>
      <use xlink:href="#DejaVuSans-70" x="777.490234"/>
      <use xlink:href="#DejaVuSans-6c" x="840.966797"/>
      <use xlink:href="#DejaVuSans-e8" x="868.75"/>
      <use xlink:href="#DejaVuSans-74" x="930.273438"/>
      <use xlink:href="#DejaVuSans-65" x="969.482422"/>
     </g>
    </g>
    <g id="line2d_20">
     <path d="M 260.606562 72.466219 
L 271.606562 72.466219 
L 271.606562 72.466219 
L 282.606562 72.466219 
L 282.606562 72.466219 
" style="fill: none; stroke: #dd8452; stroke-width: 1.5; stroke-linecap: round"/>
    </g>
    <g id="text_20">
     <!-- avec vidéo -->
     <g style="fill: #262626" transform="translate(291.406563 76.316219) scale(0.11 -0.11)">
      <use xlink:href="#DejaVuSans-61"/>
      <use xlink:href="#DejaVuSans-76" x="61.279297"/>
      <use xlink:href="#DejaVuSans-65" x="120.458984"/>
      <use xlink:href="#DejaVuSans-63" x="181.982422"/>
      <use xlink:href="#DejaVuSans-20" x="236.962891"/>
      <use xlink:href="#DejaVuSans-76" x="268.75"/>
      <use xlink:href="#DejaVuSans-69" x="327.929688"/>
      <use xlink:href="#DejaVuSans-64" x="355.712891"/>
      <use xlink:href="#DejaVuSans-e9" x="419.189453"/>
      <use xlink:href="#DejaVuSans-6f" x="480.712891"/>
     </g>
    </g>
    <g id="line2d_21">
     <path d="M 260.606562 88.612156 
L 271.606562 88.612156 
L 271.606562 88.612156 
L 282.606562 88.612156 
L 282.606562 88.612156 
" style="fill: none; stroke: #55a868; stroke-width: 1.5; stroke-linecap: round"/>
    </g>
    <g id="text_21">
     <!-- sans vidéo -->
     <g style="fill: #262626" transform="translate(291.406563 92.462156) scale(0.11 -0.11)">
      <use xlink:href="#DejaVuSans-73"/>
      <use xlink:href="#DejaVuSans-61" x="52.099609"/>
      <use xlink:href="#DejaVuSans-6e" x="113.378906"/>
      <use xlink:href="#DejaVuSans-73" x="176.757812"/>
      <use xlink:href="#DejaVuSans-20" x="228.857422"/>
      <use xlink:href="#DejaVuSans-76" x="260.644531"/>
      <use xlink:href="#DejaVuSans-69" x="319.824219"/>
      <use xlink:href="#DejaVuSans-64" x="347.607422"/>
      <use xlink:href="#DejaVuSans-e9" x="411.083984"/>
      <use xlink:href="#DejaVuSans-6f" x="472.607422"/>
     </g>
    </g>
   </g>
  </g>
 </g>
 <defs>
  <clipPath id="p8a8c4e975b">
   <rect x="57.6" y="41.472" width="357.12" height="266.112"/>
  </clipPath>
 </defs>
</svg>
